<?xml version="1.0" encoding="utf-8"?>
<!-- Generator: Adobe Illustrator 21.0.2, SVG Export Plug-In . SVG Version: 6.00 Build 0)  -->
<svg version="1.1" id="Layer_1" xmlns="http://www.w3.org/2000/svg" xmlns:xlink="http://www.w3.org/1999/xlink" x="0px" y="0px"
	 viewBox="0 0 100 100" style="enable-background:new 0 0 100 100;" xml:space="preserve">
<style type="text/css">
	.st0{fill:#FFFFFF;}
</style>
<g>
	<path class="st0" d="M100,0v100H0V0H100z M33.9,56.9v-14c0-6-4.7-10.7-10.6-10.7H12.8v35.4h10.6C29.2,67.6,33.9,62.9,33.9,56.9z
		 M27.7,42.8V57c0,2.3-1.9,4.3-4.3,4.3H19V38.6h4.5C25.8,38.6,27.7,40.4,27.7,42.8z M60.5,42.8c0-5.8-4.7-10.6-10.6-10.6H39.3v35.4
		h6.2v-29h4.4c2.4,0,4.3,1.8,4.3,4.3v24.8h6.3V42.8z M87.3,42.6c0-5.8-4.7-10.6-10.6-10.6h-0.1C70.8,32,66,36.7,66,42.6v25.1h6.3V55
		H81v12.6h6.3V42.6z M81,42.6V49h-8.6v-6.4c0-2.3,1.8-4.3,4.3-4.3h0.1C79.1,38.3,81,40.3,81,42.6z"/>
</g>
</svg>
